<svg width="397" height="48" viewBox="0 0 397 48" fill="none" xmlns="http://www.w3.org/2000/svg">
<g clip-path="url(#clip0_1_7550)">
<path d="M130.574 40.2031H33.1642L40.9239 47.9628L130.574 40.2031Z" fill="#8529CD"/>
<path d="M42.1876 8.81665V9.99021C40.3783 8.83858 38.7572 8.16797 36.5352 8.16797C29.7105 8.16797 24.5275 14.3904 24.5275 22.0341C24.5275 29.6777 29.7118 35.8976 36.5352 35.8976C38.7559 35.8976 40.3783 35.2295 42.1876 34.0766V35.2489H48.1857V8.81665H42.1876ZM36.5352 29.532C33.1706 29.532 30.7061 26.2189 30.7061 22.0328C30.7061 17.8466 33.1693 14.5362 36.5352 14.5362C39.9011 14.5362 42.2792 17.8505 42.2792 22.0328C42.2792 26.215 39.905 29.532 36.5352 29.532Z" fill="#8529CD"/>
<path d="M90.2431 8.82031V24.3474C90.2431 27.2594 88.2429 29.72 85.3283 29.72C82.4138 29.72 80.4135 27.2607 80.4135 24.3474V8.82031H74.4142V24.3474C74.4142 30.7182 78.7718 35.9012 85.1439 35.9012C88.0946 35.9012 90.2431 34.2699 90.2431 34.2699V35.2526H96.2424V8.82031H90.2431Z" fill="#8529CD"/>
<path d="M146.14 35.2489V19.7218C146.14 16.8098 148.14 14.3492 151.055 14.3492C153.969 14.3492 155.97 16.8085 155.97 19.7218V35.2489H161.969V19.7218C161.969 13.351 157.611 8.16797 151.239 8.16797C148.289 8.16797 146.14 9.79935 146.14 9.79935V8.81665H140.141V35.2489H146.14Z" fill="#8529CD"/>
<path d="M7.23901 35.2488V25.0092H11.6766L19.3589 35.2488H27.2128L17.93 22.8929C20.8227 20.8166 22.7236 17.4391 22.7236 13.614C22.7236 7.33224 17.6154 2.23047 11.3336 2.23047H0.964966V35.2488H7.23901ZM7.23901 8.49936H11.3336C14.1514 8.49936 16.4547 10.791 16.4547 13.614C16.4547 16.437 14.1501 18.7351 11.3336 18.7351H7.23901V8.50065V8.49936Z" fill="#8529CD"/>
<path d="M112.409 28.9941C111.87 29.3591 111.19 29.6441 110.402 29.6441C109.422 29.6441 107.574 28.8948 107.574 26.4007V15.0894H112.704V8.81532H107.574V2.23047H101.575V8.8166H98.4025V15.0907H101.576V26.4936C101.575 32.3962 106.022 35.9207 110.495 35.9207C112.163 35.9207 114.476 35.3752 116.363 34.2571L112.409 28.9941Z" fill="#8529CD"/>
<path d="M63.1027 21.2071L73.3926 8.81764H64.9842L57.7868 18.0243V0.046875H51.6095V35.2486H57.7868V24.3912L66.635 35.2486H75.0395L63.1027 21.2071Z" fill="#8529CD"/>
<path d="M126.268 8.14582C119.324 8.14582 114.344 14.2471 114.344 22.0325C114.344 30.2178 120.595 35.9206 126.864 35.9206C130.027 35.9206 134.082 34.836 137.488 30.0037L132.19 26.9435C128.093 32.9841 121.263 29.9186 120.473 23.878L137.753 23.8819C139.231 14.3889 133.094 8.14453 126.268 8.14453V8.14582ZM131.505 18.6202H120.7C121.963 12.43 130.335 12.074 131.505 18.6202Z" fill="#8529CD"/>
<path d="M171.216 35.2466L182.868 3.87891H187.587L199.239 35.2466H194.961L192.16 27.4301H178.049L175.295 35.2466H171.215H171.216ZM179.378 23.6928H190.834L185.082 7.61496L179.38 23.6928H179.378Z" fill="#8529CD"/>
<path d="M210.057 35.7389C207.992 35.7389 206.123 35.183 204.452 34.0675C202.779 32.9533 201.46 31.4122 200.494 29.4455C199.527 27.4788 199.043 25.2348 199.043 22.7098C199.043 20.1847 199.527 17.9007 200.494 15.9495C201.461 13.9996 202.78 12.4675 204.452 11.3533C206.123 10.2403 207.992 9.68063 210.057 9.68063C211.957 9.68063 213.647 10.1475 215.121 11.0825C216.596 12.0161 217.709 13.271 218.464 14.8443V0.339844H222.397V35.2475H219.005L218.563 30.5288C217.808 32.1021 216.677 33.3647 215.17 34.3138C213.662 35.263 211.957 35.7389 210.057 35.7389ZM210.794 31.9048C212.268 31.9048 213.588 31.5205 214.752 30.7493C215.915 29.9807 216.834 28.8987 217.505 27.5046C218.176 26.1118 218.513 24.5127 218.513 22.7098C218.513 20.9069 218.176 19.269 217.505 17.893C216.834 16.5157 215.915 15.4427 214.752 14.6715C213.589 13.9029 212.27 13.5173 210.794 13.5173C209.319 13.5173 208 13.9029 206.836 14.6715C205.673 15.4427 204.755 16.5157 204.084 17.893C203.412 19.269 203.077 20.8759 203.077 22.7098C203.077 24.5436 203.412 26.1105 204.084 27.5046C204.755 28.8987 205.673 29.9794 206.836 30.7493C208 31.5205 209.319 31.9048 210.794 31.9048Z" fill="#8529CD"/>
<path d="M234.589 35.2461L224.953 10.1719H229.378L237.049 30.9207L244.669 10.1719H248.8L239.164 35.2461H234.592H234.589Z" fill="#8529CD"/>
<path d="M260.205 35.8389C257.813 35.8389 255.731 35.2895 253.962 34.1921C252.193 33.0946 250.823 31.5625 249.857 29.5958C248.89 27.6291 248.406 25.3504 248.406 22.7621C248.406 20.1738 248.89 17.895 249.857 15.9283C250.823 13.9616 252.15 12.4128 253.84 11.2818C255.528 10.1508 257.47 9.58594 259.666 9.58594C261.862 9.58594 263.797 10.1508 265.467 11.2818C267.14 12.4128 268.45 13.9616 269.4 15.9283C270.349 17.895 270.825 20.1738 270.825 22.7621V23.7448H252.438C252.602 26.4981 253.405 28.5886 254.847 30.0137C256.289 31.4387 258.173 32.1519 260.501 32.1519C263.482 32.1519 265.974 30.6611 267.974 27.6781L270.53 30.5295C269.382 32.2009 267.9 33.5034 266.081 34.4384C264.262 35.3721 262.303 35.8402 260.205 35.8402V35.8389ZM259.665 13.2717C257.73 13.2717 256.142 13.9036 254.896 15.1649C253.65 16.4261 252.863 18.1878 252.537 20.4498H266.745C266.417 18.1891 265.638 16.4261 264.409 15.1649C263.18 13.9036 261.599 13.2717 259.665 13.2717Z" fill="#8529CD"/>
<path d="M273.916 35.2492V10.1749H277.308L277.75 14.944C278.405 13.3384 279.34 12.0604 280.553 11.1099C281.765 10.1595 283.11 9.68359 284.584 9.68359C286.223 9.68359 287.698 10.2252 289.009 11.3072L287.633 15.2393C286.518 14.2901 285.354 13.8143 284.142 13.8143C282.929 13.8143 281.896 14.1999 280.946 14.9698C279.995 15.7397 279.241 16.7804 278.685 18.0907C278.127 19.4022 277.85 20.8776 277.85 22.5154V35.2492H273.916Z" fill="#8529CD"/>
<path d="M302.824 35.7386C297.973 35.7386 295.548 32.9208 295.548 27.2825V13.8111H291.174V10.1717H295.548V3.68359H299.482V10.173H308.233V13.8123H299.482V27.0865C299.482 30.3003 300.711 31.9046 303.169 31.9046C303.922 31.9046 304.635 31.7653 305.307 31.4867C305.979 31.2082 306.724 30.7581 307.544 30.1339L308.676 33.968C307.07 35.1493 305.119 35.7373 302.824 35.7373V35.7386Z" fill="#8529CD"/>
<path d="M314.182 6.39024C313.361 6.39024 312.682 6.10394 312.141 5.53006C311.601 4.95746 311.33 4.2933 311.33 3.53887C311.33 2.78444 311.601 2.12157 312.141 1.54897C312.683 0.975087 313.361 0.6875 314.182 0.6875C315.002 0.6875 315.681 0.975087 316.222 1.54897C316.762 2.12157 317.033 2.78702 317.033 3.53887C317.033 4.29072 316.762 4.95746 316.222 5.53006C315.68 6.10394 315 6.39024 314.182 6.39024ZM312.215 35.2508V10.1766H316.148V35.2508H312.215Z" fill="#8529CD"/>
<path d="M328.981 35.8363C326.915 35.8363 325.014 35.394 323.278 34.5093C321.54 33.6246 320.081 32.3453 318.902 30.6752L321.459 27.7735C323.327 30.6907 325.817 32.1493 328.932 32.1493C330.538 32.1493 331.783 31.8462 332.668 31.2401C333.553 30.6339 333.995 29.7725 333.995 28.6582C333.995 26.6915 332.553 25.3477 329.67 24.6268L326.768 23.8892C324.735 23.3643 323.147 22.4873 322 21.2583C320.852 20.0293 320.278 18.563 320.278 16.8581C320.278 15.4486 320.647 14.195 321.385 13.0963C322.123 11.9988 323.13 11.1386 324.408 10.5157C325.686 9.89412 327.128 9.58203 328.733 9.58203C330.503 9.58203 332.151 9.95087 333.675 10.6872C335.2 11.4249 336.387 12.4656 337.24 13.8094L334.782 16.7588C333.897 15.5143 332.987 14.6206 332.053 14.0803C331.119 13.5386 330.013 13.2691 328.733 13.2691C327.454 13.2691 326.341 13.5812 325.489 14.2028C324.635 14.8257 324.211 15.6446 324.211 16.6608C324.211 17.579 324.538 18.3154 325.193 18.8738C325.848 19.4309 326.963 19.9236 328.537 20.3491L331.289 21.0868C333.42 21.6775 335.067 22.6034 336.231 23.8647C337.393 25.1272 337.976 26.6425 337.976 28.4119C337.976 30.6081 337.157 32.3943 335.518 33.7716C333.879 35.1476 331.699 35.8363 328.98 35.8363H328.981Z" fill="#8529CD"/>
<path d="M343.092 6.39024C342.272 6.39024 341.592 6.10394 341.052 5.53006C340.511 4.95746 340.24 4.2933 340.24 3.53887C340.24 2.78444 340.511 2.12157 341.052 1.54897C341.593 0.975087 342.272 0.6875 343.092 0.6875C343.912 0.6875 344.592 0.975087 345.132 1.54897C345.672 2.12157 345.943 2.78702 345.943 3.53887C345.943 4.29072 345.672 4.95746 345.132 5.53006C344.59 6.10394 343.911 6.39024 343.092 6.39024ZM341.125 35.2508V10.1766H345.058V35.2508H341.125Z" fill="#8529CD"/>
<path d="M349.385 35.2479V10.1737H352.778L353.22 14.846C354.039 13.2404 355.162 11.9778 356.587 11.0609C358.014 10.1427 359.628 9.68359 361.431 9.68359C364.151 9.68359 366.315 10.6341 367.921 12.535C369.526 14.4372 370.33 17.1892 370.33 20.795V35.2492H366.396V20.9924C366.396 18.5666 365.864 16.7147 364.8 15.4353C363.735 14.1586 362.299 13.519 360.498 13.519C359.087 13.519 357.842 13.9046 356.762 14.6732C355.68 15.4444 354.836 16.4683 354.23 17.7464C353.623 19.0244 353.32 20.4185 353.32 21.926V35.2492H349.386L349.385 35.2479Z" fill="#8529CD"/>
<path d="M384.735 45.1806C382.638 45.1806 380.655 44.8376 378.786 44.1489C376.919 43.459 375.329 42.4763 374.017 41.1983L375.541 37.6092C376.787 38.8215 378.188 39.7474 379.746 40.3871C381.302 41.0267 382.932 41.3466 384.638 41.3466C389.98 41.3466 392.652 38.1676 392.652 31.8085V29.9888C391.865 31.4641 390.742 32.6932 389.284 33.6771C387.825 34.6611 386.178 35.1525 384.342 35.1525C382.277 35.1525 380.425 34.6108 378.786 33.5288C377.147 32.4481 375.852 30.9483 374.903 29.0319C373.951 27.1142 373.477 24.9425 373.477 22.5167C373.477 20.0909 373.944 17.8637 374.879 15.9293C375.812 13.9961 377.099 12.4718 378.738 11.3562C380.376 10.2433 382.245 9.68359 384.343 9.68359C386.18 9.68359 387.842 10.1595 389.333 11.1099C390.823 12.0604 391.964 13.2739 392.75 14.748L393.144 10.1749H396.537V31.8085C396.537 36.1997 395.504 39.5269 393.439 41.7889C391.373 44.0496 388.472 45.1806 384.736 45.1806H384.735ZM385.029 31.3661C386.538 31.3661 387.865 30.9805 389.013 30.2106C390.159 29.4407 391.061 28.3832 391.717 27.0394C392.372 25.6956 392.7 24.1558 392.7 22.4174C392.7 20.679 392.372 19.0914 391.717 17.7464C391.061 16.4026 390.159 15.3541 389.013 14.5997C387.865 13.8452 386.538 13.4674 385.029 13.4674C383.52 13.4674 382.251 13.8452 381.12 14.5997C379.989 15.3541 379.097 16.4026 378.442 17.7464C377.785 19.0914 377.458 20.6467 377.458 22.4174C377.458 24.1881 377.785 25.7446 378.442 27.0884C379.097 28.4335 379.989 29.482 381.12 30.2351C382.251 30.9908 383.555 31.3674 385.029 31.3674V31.3661Z" fill="#8529CD"/>
</g>
<defs>
<clipPath id="clip0_1_7550">
<rect width="395.576" height="48" fill="white" transform="translate(0.843872)"/>
</clipPath>
</defs>
</svg>
