<svg width="114" height="20" viewBox="0 0 114 20" fill="none" xmlns="http://www.w3.org/2000/svg">
<path d="M14.2842 8.92773C14.2608 8.95118 14.2535 8.98628 14.2652 9.01728C14.5018 9.64067 14.6313 10.3168 14.6313 11.0232C14.6313 14.1465 12.0995 16.6784 8.9763 16.6784C5.8531 16.6784 3.32122 14.1465 3.32122 11.0232C3.32122 7.8999 5.8531 5.36798 8.9763 5.36798C9.76045 5.36798 10.5073 5.52758 11.1862 5.81607C11.2178 5.82952 11.2545 5.82262 11.2788 5.79832L13.6182 3.45879C13.6563 3.42071 13.6489 3.35708 13.6028 3.32928C12.2517 2.51504 10.6687 2.04663 8.9763 2.04663C4.01883 2.04663 0 6.06557 0 11.0232C0 15.9808 4.01883 19.9997 8.9763 19.9997C13.9337 19.9997 17.9525 15.9808 17.9525 11.0232C17.9525 9.40728 17.5256 7.89105 16.7783 6.58121C16.7512 6.53376 16.6864 6.52546 16.6478 6.56411L14.2842 8.92773Z" fill="#2D3A48"/>
<path fill-rule="evenodd" clip-rule="evenodd" d="M15.1111 2.89313L13.8771 2.72862C13.7932 2.71745 13.7778 2.60063 13.8559 2.56747L19.885 0.00698328C19.9527 -0.0217876 20.0211 0.0466512 19.9938 0.115948L17.5693 6.27847C17.5378 6.35849 17.4224 6.34439 17.4104 6.25907L17.2233 4.92758L10.0667 12.2072C9.79396 12.4845 9.42416 12.6403 9.03856 12.6403C8.65296 12.6403 8.28316 12.4845 8.01046 12.2072L5.89571 10.056C5.32791 9.47848 5.32791 8.54207 5.89571 7.96452C6.46346 7.38702 7.38406 7.38702 7.95186 7.96452L9.03856 9.06991L15.1111 2.89313Z" fill="#069BA2"/>
<path d="M24.1457 10.3719C24.0997 10.3719 24.0625 10.3346 24.0625 10.2885V5.28362C24.0625 5.23757 24.0997 5.20027 24.1457 5.20027H26.9925C28.7737 5.20027 29.8517 6.21107 29.8517 7.80957C29.8517 9.38457 28.7737 10.3719 26.9925 10.3719H24.1457ZM27.4143 12.8637C30.6018 12.8637 32.7112 10.7245 32.7112 7.78607C32.7112 4.87117 30.6018 2.7085 27.4143 2.7085H21.3331C21.2872 2.7085 21.25 2.74581 21.25 2.79183V19.2918C21.25 19.3379 21.2872 19.3752 21.3331 19.3752H23.9795C24.0254 19.3752 24.0625 19.3379 24.0625 19.2918V12.947C24.0625 12.901 24.0997 12.8637 24.1457 12.8637H27.4143Z" fill="#2D3A48"/>
<path d="M47.1964 5.36482C47.2423 5.36482 47.2795 5.32752 47.2795 5.28152V2.79183C47.2795 2.74581 47.2423 2.7085 47.1964 2.7085H33.745C33.6991 2.7085 33.662 2.74581 33.662 2.79183V5.28152C33.662 5.32752 33.6991 5.36482 33.745 5.36482H38.9696C39.0155 5.36482 39.0527 5.40212 39.0527 5.44817V19.2918C39.0527 19.3379 39.0899 19.3752 39.1358 19.3752H41.7822C41.8281 19.3752 41.8653 19.3379 41.8653 19.2918V5.44817C41.8653 5.40212 41.9024 5.36482 41.9483 5.36482H47.1964Z" fill="#2D3A48"/>
<path d="M67.785 19.3752C67.831 19.3752 67.868 19.3379 67.868 19.2918V2.79183C67.868 2.74581 67.831 2.7085 67.785 2.7085H64.103C64.0695 2.7085 64.039 2.72865 64.0265 2.75958L58.8035 15.244C58.775 15.312 58.679 15.3122 58.6505 15.2444L53.358 2.75923C53.345 2.72848 53.315 2.7085 53.2815 2.7085H49.6695C49.6236 2.7085 49.5864 2.74581 49.5864 2.79183V19.2918C49.5864 19.3379 49.6236 19.3752 49.6695 19.3752H52.2455C52.2915 19.3752 52.3285 19.3379 52.3285 19.2918V7.56397C52.3285 7.47302 52.453 7.44782 52.4885 7.53162L57.44 19.3242C57.453 19.3551 57.4835 19.3752 57.517 19.3752H59.844C59.8775 19.3752 59.9075 19.3552 59.9205 19.3243L64.9195 7.48247C64.9545 7.39882 65.079 7.42412 65.079 7.51492V19.2918C65.079 19.3379 65.116 19.3752 65.162 19.3752H67.785Z" fill="#2D3A48"/>
<path d="M75.8999 12.3031C75.9074 12.3161 75.9119 12.331 75.9119 12.3463V19.2918C75.9119 19.3379 75.9494 19.3752 75.9949 19.3752H78.6414C78.6874 19.3752 78.7244 19.3379 78.7244 19.2918V12.3464C78.7244 12.3311 78.7289 12.3161 78.7364 12.303L84.5064 2.83529C84.5404 2.77977 84.5004 2.7085 84.4359 2.7085H81.4679C81.4384 2.7085 81.4109 2.72442 81.3959 2.75025L77.4844 9.56437C77.4519 9.62012 77.3719 9.62002 77.3399 9.56417L73.4514 2.75044C73.4364 2.7245 73.4089 2.7085 73.3794 2.7085H70.2469C70.1819 2.7085 70.1419 2.7795 70.1759 2.83504L75.8999 12.3031Z" fill="#2D3A48"/>
<path d="M98.7423 19.3752C98.7883 19.3752 98.8253 19.3379 98.8253 19.2918V16.7787C98.8253 16.7327 98.7883 16.6953 98.7423 16.6953H89.5563C89.4863 16.6953 89.4478 16.6132 89.4923 16.5589L98.6893 5.41147C98.7013 5.39652 98.7083 5.37772 98.7083 5.35832V2.79183C98.7083 2.74581 98.6708 2.7085 98.6253 2.7085H86.2053C86.1593 2.7085 86.1218 2.74581 86.1218 2.79183V5.28152C86.1218 5.32752 86.1593 5.36482 86.2053 5.36482H94.8993C94.9698 5.36482 95.0083 5.44672 94.9638 5.50107L85.8833 16.5783C85.8708 16.5932 85.8643 16.6119 85.8643 16.6312V19.2918C85.8643 19.3379 85.9013 19.3752 85.9473 19.3752H98.7423Z" fill="#2D3A48"/>
<path d="M110.14 19.331C110.154 19.3582 110.183 19.3752 110.213 19.3752H113.211C113.274 19.3752 113.314 19.3073 113.284 19.2518L109.653 12.6064C109.627 12.5583 109.654 12.4983 109.707 12.4844C111.965 11.8915 113.351 10.1006 113.351 7.76257C113.351 4.94169 111.359 2.7085 108.148 2.7085H101.856C101.81 2.7085 101.773 2.74581 101.773 2.79183V19.2918C101.773 19.3379 101.81 19.3752 101.856 19.3752H104.526C104.571 19.3752 104.609 19.3379 104.609 19.2918V12.8765C104.609 12.8304 104.646 12.7931 104.692 12.7931H106.621C106.652 12.7931 106.68 12.8101 106.695 12.8373L110.14 19.331ZM104.692 10.3014C104.646 10.3014 104.609 10.264 104.609 10.218V5.28362C104.609 5.23757 104.646 5.20027 104.692 5.20027H107.632C109.366 5.20027 110.492 6.21107 110.492 7.76257C110.492 9.29052 109.366 10.3014 107.632 10.3014H104.692Z" fill="#2D3A48"/>
</svg>
